<?xml version="1.0" standalone="no"?>
<!DOCTYPE svg PUBLIC "-//W3C//DTD SVG 20010904//EN"
 "http://www.w3.org/TR/2001/REC-SVG-20010904/DTD/svg10.dtd">
<svg version="1.0" xmlns="http://www.w3.org/2000/svg"
 width="500.000000pt" height="500.000000pt" viewBox="0 0 500.000000 500.000000"
 preserveAspectRatio="xMidYMid meet">
<metadata>
Created by potrace 1.16, written by Peter Selinger 2001-2019
</metadata>
<g transform="translate(0.000000,500.000000) scale(0.100000,-0.100000)"
fill="#000000" stroke="none">
<path d="M2407 4950 c-79 -20 -140 -69 -179 -142 -32 -62 -32 -186 0 -246 30
-56 86 -109 140 -133 47 -20 168 -26 200 -10 9 5 30 15 47 22 37 17 104 86
117 119 46 122 18 252 -74 337 -51 48 -170 73 -251 53z"/>
<path d="M1813 4388 c-73 -35 -115 -87 -147 -179 -19 -53 -20 -79 -4 -133 23
-80 81 -151 153 -189 31 -17 57 -22 120 -22 93 0 127 16 242 108 63 51 149 95
198 102 11 1 43 5 70 9 68 9 255 -32 255 -56 0 -4 6 -8 14 -8 8 0 47 -25 86
-56 116 -90 135 -98 220 -98 115 -1 185 37 246 134 26 41 29 53 29 135 0 88
-1 91 -40 150 -59 88 -115 119 -221 123 -95 5 -124 -7 -229 -91 -204 -164
-431 -169 -633 -13 -124 95 -148 106 -237 106 -60 -1 -91 -6 -122 -22z"/>
<path d="M1272 3844 c-95 -47 -162 -150 -162 -248 1 -128 74 -226 200 -270 46
-16 121 -21 133 -9 4 3 18 8 32 9 56 6 148 95 177 171 39 102 14 207 -67 289
-88 88 -209 110 -313 58z"/>
<path d="M2400 3861 c-73 -25 -139 -80 -172 -144 -17 -33 -22 -60 -22 -122 -1
-69 3 -87 27 -130 15 -27 44 -68 65 -90 60 -64 89 -121 118 -233 19 -72 18
-119 -6 -207 -24 -89 -57 -151 -120 -225 -63 -73 -80 -108 -86 -183 -11 -115
54 -228 159 -276 33 -15 66 -21 117 -21 79 0 132 19 190 70 83 71 137 104 213
128 172 56 354 6 492 -132 57 -58 76 -85 100 -146 28 -69 30 -84 30 -195 -1
-137 -20 -202 -81 -278 -18 -23 -55 -73 -81 -111 -48 -69 -48 -70 -48 -150 0
-66 5 -90 24 -126 56 -107 187 -174 295 -150 77 17 109 35 163 90 37 39 73
125 73 178 0 55 -34 139 -77 189 -46 54 -56 67 -83 111 -16 26 -32 61 -36 77
-4 17 -10 35 -15 40 -12 16 -18 165 -8 225 11 69 67 181 122 242 43 48 66 87
86 149 14 44 14 106 1 114 -5 3 -10 15 -10 26 0 11 -9 36 -19 57 -59 115 -215
171 -343 123 -31 -12 -69 -34 -85 -49 -15 -15 -48 -41 -73 -57 -25 -17 -47
-32 -50 -35 -14 -16 -90 -43 -158 -57 -84 -17 -153 -10 -253 28 -195 74 -334
290 -316 491 10 118 50 207 133 299 77 85 103 167 84 267 -14 75 -61 142 -128
182 -46 28 -67 34 -126 36 -39 2 -82 0 -96 -5z"/>
<path d="M3453 3845 c-59 -30 -115 -83 -140 -135 -26 -51 -25 -182 2 -235 60
-121 203 -187 326 -151 97 28 151 82 198 199 25 63 -1 177 -57 245 -74 93
-226 128 -329 77z"/>
<path d="M760 3311 c-131 -51 -192 -134 -193 -261 -2 -157 108 -270 269 -278
74 -4 142 17 182 56 33 32 116 97 140 109 58 31 157 53 232 53 132 0 228 -38
347 -138 99 -83 206 -103 308 -58 146 65 206 231 134 374 -42 84 -102 130
-201 152 -50 11 -62 10 -122 -9 -47 -15 -87 -38 -131 -74 -123 -102 -221 -136
-370 -130 -104 4 -233 62 -319 144 -67 64 -195 92 -276 60z"/>
<path d="M2960 3316 c-88 -25 -135 -61 -181 -141 -20 -34 -24 -54 -24 -130 0
-81 3 -95 28 -137 69 -115 216 -167 340 -120 26 10 80 45 120 78 114 94 193
124 328 124 165 0 297 -70 414 -222 6 -7 23 -43 38 -80 67 -168 34 -369 -84
-503 -79 -91 -102 -140 -103 -225 -2 -107 57 -201 159 -253 31 -15 59 -20 120
-20 96 0 134 15 192 75 103 106 112 252 22 365 -76 95 -119 167 -139 233 -26
89 -27 217 -1 292 19 55 49 119 60 128 29 24 105 127 121 165 39 90 19 208
-48 286 -38 45 -83 69 -157 88 -69 16 -163 -5 -214 -49 -48 -41 -167 -120
-180 -120 -6 0 -11 -4 -11 -8 0 -26 -188 -45 -285 -30 -61 9 -180 68 -226 111
-90 86 -196 119 -289 93z"/>
<path d="M230 2773 c-90 -33 -157 -90 -186 -158 -8 -20 -14 -67 -14 -115 0
-66 5 -90 25 -129 46 -93 137 -145 247 -143 82 1 133 23 214 90 77 63 116 86
191 111 190 64 424 -20 542 -194 60 -89 81 -159 81 -274 0 -141 -31 -226 -118
-326 -120 -136 -132 -288 -33 -398 93 -103 211 -128 336 -71 85 39 155 150
155 246 0 50 -34 136 -68 173 -46 50 -98 128 -116 175 -19 47 -20 53 -36 134
-25 123 30 301 123 396 73 76 102 146 95 232 -13 152 -143 266 -293 256 -74
-5 -128 -31 -225 -108 -41 -33 -80 -60 -86 -60 -5 0 -28 -8 -50 -19 -69 -33
-166 -45 -237 -31 -34 7 -66 17 -71 21 -6 5 -16 9 -23 9 -27 0 -102 43 -164
93 -79 65 -154 97 -223 96 -28 0 -58 -3 -66 -6z"/>
<path d="M4615 2775 c-5 -2 -29 -9 -53 -15 -51 -13 -113 -66 -149 -127 -21
-37 -26 -57 -26 -121 0 -93 22 -150 80 -207 53 -51 112 -74 194 -74 155 -2
269 113 269 271 0 113 -50 197 -144 243 -49 24 -146 41 -171 30z"/>
<path d="M787 2230 c-82 -14 -161 -77 -197 -158 -26 -58 -27 -171 -1 -227 21
-47 68 -96 125 -133 35 -22 52 -25 126 -26 63 0 94 5 120 19 90 47 133 102
158 201 11 44 11 61 -2 109 -18 68 -65 142 -112 175 -30 20 -132 51 -159 49
-5 -1 -32 -5 -58 -9z"/>
<path d="M1877 2229 c-79 -18 -154 -75 -190 -143 -17 -32 -21 -59 -21 -126 -1
-91 13 -131 69 -195 74 -85 85 -101 115 -180 20 -51 24 -77 23 -175 -1 -102
-4 -123 -28 -180 -29 -70 -53 -108 -98 -155 -35 -38 -68 -97 -82 -152 -13 -49
0 -138 27 -188 21 -39 84 -98 128 -120 65 -33 198 -30 244 6 54 41 95 84 111
116 10 21 22 46 26 55 5 10 9 44 9 75 0 65 -34 151 -74 188 -44 40 -103 139
-126 209 -20 60 -22 83 -18 175 5 90 10 116 35 171 69 151 213 259 386 290
135 24 311 -37 426 -149 45 -44 109 -65 191 -64 87 1 140 22 194 78 56 57 71
99 71 195 -1 75 -4 91 -29 132 -55 94 -139 141 -248 140 -52 0 -79 -6 -122
-27 -30 -15 -57 -33 -60 -40 -2 -7 -26 -28 -53 -46 -26 -18 -50 -36 -53 -39
-3 -4 -36 -19 -75 -35 -138 -55 -310 -40 -423 36 -24 16 -46 29 -50 29 -5 0
-25 18 -46 39 -64 66 -174 99 -259 80z"/>
<path d="M2383 1673 c-125 -43 -203 -187 -173 -316 17 -69 29 -92 88 -159 88
-100 125 -198 125 -328 0 -90 -11 -140 -47 -214 -22 -45 -97 -149 -126 -176
-32 -30 -54 -135 -41 -204 13 -72 31 -105 83 -155 52 -49 112 -71 192 -70 75
1 113 14 171 59 64 50 97 120 97 208 0 83 -18 128 -76 197 -136 159 -176 335
-117 515 21 62 36 86 131 205 47 59 63 107 62 192 -2 181 -192 307 -369 246z"/>
<path d="M2960 1136 c-102 -29 -169 -92 -197 -185 -52 -181 79 -361 264 -361
78 0 146 33 205 98 115 129 76 342 -77 419 -32 16 -138 46 -148 42 -1 0 -22
-6 -47 -13z"/>
</g>
</svg>
